<svg xmlns="http://www.w3.org/2000/svg" xmlns:xlink="http://www.w3.org/1999/xlink" viewBox="0 0 66 66" fill="#fff" fill-rule="evenodd" stroke="#000" stroke-linecap="round" stroke-linejoin="round"><use xlink:href="#A" x="1" y="1"/><symbol id="A" overflow="visible"><path d="M32.155 0C16.687-.073 3.381 10.928.545 26.135s5.613 30.264 20.068 35.77c-.26-2.624-.524-6.296 0-9.2l3.672-16a11.54 11.54 0 0 1-1.05-4.722c0-4.46 2.624-7.87 5.77-7.87s3.934 2.1 3.934 4.46-1.836 6.8-2.624 10.754 1.574 5.77 4.72 5.77 9.968-6.032 9.968-14.688-5.508-13.116-13.4-13.116-14.164 7.08-14.164 14.164c0 2.624 1.05 5.77 2.36 7.344a1.05 1.05 0 0 1 .262.786l-.786 3.672c-.26.524-.524.786-1.05.524-3.934-1.836-6.56-7.606-6.56-12.328 0-9.968 7.344-19.41 21.246-19.41s19.672 7.87 19.672 18.36-7.08 19.936-16.526 19.936c-3.148 0-6.296-1.574-7.344-3.672l-2.1 7.606c-.786 2.886-2.624 6.296-3.934 8.394a32 32 0 0 0 38.35-43.717A32 32 0 0 0 32.155 0z" stroke="none" fill="#bd081c" fill-rule="nonzero"/></symbol></svg>